# xmcd
#
# Track frame offsets:
#	200
#	16662
#	30850
#	45837
#	61425
#	77175
#	91450
#	107387
#
# Disc length: 1615 seconds
#
# Revision: 0
# Processed by: cddbd v1.4PL0 Copyright (c) Steve Scherf et al.
# Submitted via: dBpowerAMP V4.0
#
DISCID=4a064d08
DTITLE=Various Artist - Country Sampler #3
DYEAR=1994
DGENRE=Country
TTITLE0=Billy Dean - Cowboy Band
TTITLE1=Suzy Bogguss - Drive South
TTITLE2=John Berry - What's In It For Me
TTITLE3=Cleve Francis - Patti Austin - We Fell In Love Anyway
TTITLE4=Tanya Tucker - Down To My Last Teardrop
TTITLE5=Chris LeDoux - Look At You Girl
TTITLE6=Lisa Brokop - Take That
TTITLE7=George Ducas - Teardrops
EXTD=
EXTT0=
EXTT1=
EXTT2=
EXTT3=
EXTT4=
EXTT5=
EXTT6=
EXTT7=
PLAYORDER=
